<svg width="900" height="240" viewBox="0 0 900 240" fill="none" xmlns="http://www.w3.org/2000/svg">
  <g fill="#ffffff" opacity="0.9">
    <path d="M100 160C80 160 64 144 64 124C64 104 80 88 100 88C108 88 116 90 122 94C130 70 154 52 182 52C218 52 248 78 252 114C256 112 262 110 270 110C296 110 316 130 316 156C316 182 296 202 270 202H100C78 202 60 184 60 162C60 140 78 122 100 122"/>
    <path d="M480 170C462 170 448 156 448 138C448 120 462 106 480 106C486 106 492 108 498 110C506 88 526 72 550 72C580 72 604 94 608 124C612 122 618 120 626 120C648 120 666 138 666 160C666 182 648 200 626 200H480C462 200 448 186 448 168"/>
    <path d="M720 150C704 150 692 138 692 122C692 106 704 94 720 94C726 94 732 96 736 98C744 80 760 68 780 68C806 68 826 86 830 112C834 110 838 110 844 110C862 110 876 124 876 142C876 160 862 174 844 174H720C702 174 688 160 688 142"/>
  </g>
</svg>
