<svg width="320" height="320" viewBox="0 0 320 320" fill="none" xmlns="http://www.w3.org/2000/svg">
  <defs>
    <linearGradient id="bodyGrad" x1="0" y1="0" x2="1" y2="1">
      <stop offset="0%" stop-color="#ffffff"/>
      <stop offset="100%" stop-color="#f6f1ea"/>
    </linearGradient>
  </defs>
  <rect width="320" height="320" rx="64" fill="#ffffff"/>
  <g transform="translate(32 24)">
    <path d="M98 38C110 16 140 2 164 8C142 22 142 46 150 64C124 60 104 52 98 38Z" fill="#E30119"/>
    <circle cx="180" cy="74" r="10" fill="#040404"/>
    <path d="M196 80L230 96L196 112C190 100 190 92 196 80Z" fill="#FCC302"/>
    <path d="M88 104C74 70 86 34 130 26C170 18 208 40 220 74C232 108 214 154 188 172C160 192 118 178 104 150C92 130 94 116 88 104Z" fill="url(#bodyGrad)" stroke="#E6DFD6" stroke-width="2"/>
    <path d="M64 156C34 144 20 114 26 84C38 118 58 120 78 120C92 120 110 116 122 110C108 130 96 166 64 156Z" fill="#0167B1"/>
    <path d="M54 150C36 140 30 124 32 104C48 120 70 122 88 120C82 136 76 160 54 150Z" fill="#83B410"/>
    <path d="M80 196C54 190 42 166 50 144C70 168 92 166 112 156C106 180 98 204 80 196Z" fill="#FCC302"/>
    <path d="M150 188C128 204 114 238 118 262C136 248 156 248 174 236C170 214 164 196 150 188Z" fill="#F6F1EA" stroke="#E6DFD6" stroke-width="2"/>
    <path d="M168 214C172 224 174 246 168 268C186 250 204 246 226 236C214 220 196 202 168 214Z" fill="#E30119"/>
    <path d="M88 238C72 248 60 262 56 280H90C92 268 96 254 104 244C96 240 92 238 88 238Z" fill="#FCC302"/>
    <path d="M118 246C108 260 104 270 104 280H132C134 266 138 258 146 248C138 244 128 244 118 246Z" fill="#FCC302"/>
    <circle cx="170" cy="80" r="6" fill="#0167B1"/>
  </g>
</svg>
