<svg width="820" height="260" viewBox="0 0 820 260" fill="none" xmlns="http://www.w3.org/2000/svg">
  <g stroke="#1E1E1E" stroke-width="3" stroke-linecap="round" stroke-linejoin="round" opacity="0.35">
    <path d="M90 210V120" />
    <path d="M90 120C60 110 52 80 74 60C96 40 132 52 130 84C156 78 174 94 170 118C166 142 140 150 124 142" />
    <path d="M250 220V140" />
    <path d="M250 140C224 132 210 106 224 88C238 70 270 74 276 96C300 92 316 110 310 130C304 150 276 156 262 150" />
    <path d="M420 216V130" />
    <path d="M420 130C392 120 378 96 392 76C406 56 438 58 444 84C468 80 486 100 480 122C474 144 446 152 430 146" />
    <path d="M600 220V140" />
    <path d="M600 140C574 132 560 106 574 88C588 70 620 74 626 96C650 92 666 110 660 130C654 150 626 156 612 150" />
  </g>
</svg>
